# xmcd
#
# Track frame offsets: 
#        150
#        8327
#        18507
#        27432
#        40115
#        51105
#        64335
#        78097
#        87630
#        98040
#        111780
#        126817
#        138740
#        150617
#        162310
#        176060
#        185457
#
# Disc length: 2626 seconds
#
# Revision: 2
# Processed by: cddbd v1.5.2PL0 Copyright (c) Steve Scherf et al.
# Submitted via: ExactAudioCopy v0.99pb3
#
DISCID=d90a4011
DTITLE=Willie Nelson - Willie Nelson Cd1
DYEAR=1900
DGENRE=Country
TTITLE0=Things To Remember
TTITLE1=Pride Wins Again
TTITLE2=Why Are You Picking On Me?
TTITLE3=Any Old Arms Won't Do
TTITLE4=Go Away
TTITLE5=I Just Don't Undestand
TTITLE6=Home Is Where You're Happy
TTITLE7=I'm Bulding Heartaches
TTITLE8=Broken Promises
TTITLE9=A Moment Isn't Very Long
TTITLE10=And So Will You My Love
TTITLE11=Happiness Lives Next Door
TTITLE12=I Hope So
TTITLE13=I'll Stay Around
TTITLE14=No Tomorrow In Sight
TTITLE15=One Step Beyond
TTITLE16=Some Other Time
EXTD=
EXTT0=
EXTT1=
EXTT2=
EXTT3=
EXTT4=
EXTT5=
EXTT6=
EXTT7=
EXTT8=
EXTT9=
EXTT10=
EXTT11=
EXTT12=
EXTT13=
EXTT14=
EXTT15=
EXTT16=
PLAYORDER=
